<?xml version="1.0" encoding="utf-8"?>
<!-- Generator: Adobe Illustrator 16.0.4, SVG Export Plug-In . SVG Version: 6.00 Build 0)  -->
<!DOCTYPE svg PUBLIC "-//W3C//DTD SVG 1.1//EN" "http://www.w3.org/Graphics/SVG/1.1/DTD/svg11.dtd">
<svg version="1.1" id="レイヤー_1" xmlns="http://www.w3.org/2000/svg" xmlns:xlink="http://www.w3.org/1999/xlink" x="0px"
	 y="0px" width="220px" height="200px" viewBox="0 0 220 200" enable-background="new 0 0 220 200" xml:space="preserve">
<rect y="0" fill="#292929" width="220" height="200"/>
<g>
	<path fill="#FFFFFF" d="M45.755,96.439c0,2.112-0.625,3.632-1.881,4.558c-1.254,0.933-2.389,1.492-3.402,1.683
		c-1.013,0.193-2.109,0.291-3.288,0.291h-5.356V81.554h4.031c1.487,0,2.585,0.033,3.291,0.1c0.705,0.068,1.482,0.318,2.333,0.75
		c0.852,0.433,1.562,1.087,2.131,1.961c0.571,0.874,0.857,1.801,0.857,2.783c0,0.882-0.204,1.696-0.609,2.436
		c-0.405,0.74-0.995,1.291-1.767,1.658c1.177,0.367,2.083,1.016,2.714,1.945C45.441,94.117,45.755,95.201,45.755,96.439z
		 M40.461,87.488c0-0.417-0.121-0.784-0.363-1.105c-0.241-0.323-0.503-0.544-0.783-0.667c-0.282-0.124-0.567-0.205-0.857-0.242
		c-0.29-0.036-0.552-0.055-0.783-0.055c-0.195,0-0.387,0-0.582,0c-0.192,0-0.387,0-0.58,0h-0.728v4.34h0.756h0.319
		c0.891,0,1.426-0.014,1.612-0.042c0.185-0.029,0.455-0.123,0.814-0.284c0.356-0.16,0.642-0.415,0.854-0.765
		C40.355,88.318,40.461,87.925,40.461,87.488z M41.75,96.264c0-0.523-0.111-0.948-0.333-1.276c-0.222-0.329-0.554-0.616-1-0.855
		c-0.444-0.243-0.94-0.388-1.49-0.436c-0.55-0.049-0.902-0.074-1.058-0.074h-0.346h-1.738v5.486h1.651
		c0.694,0,1.298-0.047,1.809-0.145c0.511-0.098,1.057-0.339,1.635-0.727C41.459,97.851,41.75,97.192,41.75,96.264z"/>
	<path fill="#FFFFFF" d="M59.996,102.971H48.491V81.554h11.505v3.865H52.45v4.912h7.229v3.864H52.45v4.913h7.546V102.971z"/>
	<path fill="#FFFFFF" d="M67.956,102.971h-3.959V81.554h3.959V102.971z"/>
	<path fill="#FFFFFF" d="M85.021,102.971H71.646v-3.382l8.135-14.169h-7.672v-3.865H84.47v3.586l-8.076,13.969h8.626V102.971z"/>
	<path fill="#FFFFFF" d="M141.229,102.971h-2.34c-0.16-0.632-0.24-1.473-0.24-2.525c-1.328,1.938-3.139,2.908-5.43,2.908
		c-1.162,0-2.184-0.412-3.066-1.234c-0.887-0.822-1.334-1.881-1.334-3.176c0-0.77,0.158-1.447,0.469-2.037
		c0.309-0.589,0.766-1.083,1.359-1.487c0.6-0.403,1.332-0.722,2.186-0.958c0.863-0.232,1.877-0.396,3.057-0.486l2.617-0.21v-0.75
		c0-2.68-1.246-4.021-3.74-4.021c-0.588,0-1.338,0.127-2.24,0.382c-0.902,0.256-1.68,0.558-2.322,0.908l-0.617-1.671
		c2.125-1.081,4.104-1.623,5.93-1.623c3.551,0,5.332,1.883,5.332,5.647v6.71C140.848,100.705,140.975,101.914,141.229,102.971z
		 M138.506,98.345v-2.861c-2.113,0.192-3.561,0.368-4.344,0.534c-0.787,0.165-1.473,0.474-2.041,0.922
		c-0.578,0.45-0.867,1.061-0.867,1.83c0,0.702,0.246,1.268,0.738,1.698c0.486,0.431,1.113,0.646,1.879,0.646
		c0.824,0,1.654-0.247,2.471-0.737C137.166,99.886,137.889,99.208,138.506,98.345z"/>
	<path fill="#FFFFFF" d="M186.744,89.615c-1.299-0.412-2.512-0.62-3.66-0.62c-1.252,0-2.248,0.209-2.977,0.625
		c-0.734,0.416-1.096,0.971-1.096,1.666c0,0.441,0.166,0.824,0.502,1.151c0.336,0.328,1.008,0.64,2.014,0.935l2.207,0.656
		c1.02,0.296,1.85,0.647,2.494,1.05c0.648,0.404,1.129,0.892,1.453,1.467c0.326,0.571,0.49,1.236,0.49,1.995
		c0,1.486-0.629,2.66-1.867,3.521c-1.256,0.862-2.832,1.294-4.756,1.294c-1.91,0-3.49-0.304-4.729-0.906l0.441-2.002
		c1.305,0.603,2.701,0.904,4.197,0.904c1.299,0,2.346-0.237,3.16-0.718c0.803-0.479,1.211-1.11,1.211-1.902
		c0-0.533-0.203-1.009-0.6-1.429c-0.395-0.418-1.346-0.858-2.83-1.319c-1.211-0.369-2.09-0.646-2.656-0.829
		c-0.566-0.187-1.088-0.457-1.578-0.818c-0.49-0.358-0.859-0.787-1.111-1.286c-0.252-0.499-0.379-1.058-0.379-1.677
		c0-1.345,0.58-2.413,1.756-3.198c1.168-0.786,2.721-1.183,4.658-1.183c1.254,0,2.645,0.21,4.17,0.622L186.744,89.615z"/>
	<path fill="#FFFFFF" d="M107.3,103.127h-2.521V87.828h2.521v2.766c0.516-0.922,1.005-1.585,1.47-1.985
		c0.465-0.403,0.974-0.704,1.53-0.903c0.546-0.204,1.134-0.303,1.761-0.303c0.619,0,1.215,0.097,1.785,0.295
		c0.57,0.196,1.062,0.491,1.475,0.882c0.42,0.393,0.832,1.065,1.238,2.014c0.514-0.885,1.023-1.536,1.523-1.952
		c0.506-0.415,1.014-0.727,1.545-0.932c0.531-0.206,1.088-0.308,1.686-0.308c0.865,0,1.635,0.204,2.336,0.611
		c0.697,0.404,1.227,0.982,1.604,1.733c0.375,0.748,0.564,2.023,0.564,3.822v9.56h-2.521v-8.504c0-1.801-0.107-2.935-0.318-3.411
		c-0.215-0.476-0.504-0.84-0.881-1.09c-0.379-0.252-0.836-0.376-1.371-0.376c-0.746,0-1.443,0.233-2.08,0.704
		c-0.627,0.47-1.137,1.103-1.518,1.897c-0.377,0.796-0.568,1.909-0.568,3.344v7.436h-2.523v-8.495c0-1.798-0.098-2.935-0.293-3.409
		c-0.191-0.474-0.504-0.84-0.926-1.095c-0.422-0.256-0.879-0.382-1.371-0.382c-0.683,0-1.358,0.241-2.024,0.725
		c-0.665,0.484-1.184,1.13-1.559,1.94c-0.375,0.808-0.563,1.899-0.563,3.28V103.127z"/>
	<path fill="#FFFFFF" d="M155.389,99.896c-0.52,1.08-1.193,1.885-2.012,2.423c-0.828,0.538-1.805,0.808-2.941,0.808
		c-1.801,0-3.289-0.713-4.465-2.14c-1.17-1.431-1.756-3.311-1.756-5.64c0-1.535,0.264-2.932,0.793-4.19
		c0.525-1.263,1.262-2.203,2.215-2.823c0.945-0.621,2.061-0.932,3.336-0.932c0.953,0,1.803,0.189,2.557,0.569
		c0.75,0.38,1.51,1.148,2.273,2.309v-2.452h2.514v12.507c0,3.141-0.322,5.212-0.975,6.216c-0.654,1.008-1.479,1.752-2.482,2.232
		c-0.996,0.486-2.176,0.73-3.523,0.73c-1.244,0-2.367-0.189-3.355-0.565c-0.998-0.374-1.746-0.887-2.266-1.538
		c-0.516-0.656-0.771-1.336-0.771-2.036v-0.237h2.521v0.221c0,0.676,0.365,1.217,1.084,1.627c0.725,0.406,1.645,0.611,2.76,0.611
		c0.904,0,1.686-0.162,2.336-0.478c0.641-0.313,1.168-0.825,1.562-1.534c0.396-0.711,0.596-1.988,0.596-3.852V99.896z
		 M155.389,95.02c0-1.636-0.42-2.959-1.258-3.973c-0.828-1.014-1.83-1.521-2.99-1.521c-1.236,0-2.256,0.512-3.076,1.535
		c-0.811,1.022-1.215,2.461-1.215,4.314c0,1.172,0.16,2.193,0.484,3.069c0.328,0.876,0.836,1.542,1.529,1.993
		c0.695,0.453,1.434,0.681,2.225,0.681c1.275,0,2.316-0.569,3.104-1.707C154.986,98.272,155.389,96.81,155.389,95.02z"/>
	<path fill="#FFFFFF" d="M171.551,99.197h2.521v0.138c0,0.676-0.264,1.364-0.789,2.068c-0.521,0.702-1.217,1.234-2.078,1.602
		c-0.863,0.365-1.855,0.549-2.975,0.549c-2.264,0-4.01-0.756-5.236-2.261c-1.234-1.506-1.85-3.41-1.85-5.711
		c0-2.356,0.646-4.308,1.955-5.856c1.299-1.548,2.975-2.323,5.029-2.323c1.127,0,2.15,0.252,3.062,0.753
		c0.918,0.502,1.646,1.286,2.176,2.35c0.531,1.065,0.799,2.546,0.799,4.445v0.849h-10.531c0,1.636,0.426,2.983,1.275,4.042
		c0.844,1.06,2.023,1.589,3.527,1.589c1.078,0,1.873-0.218,2.369-0.65c0.494-0.434,0.744-0.916,0.744-1.445V99.197z M163.791,93.881
		h7.961v-0.3c0-0.713-0.164-1.405-0.494-2.077c-0.324-0.671-0.785-1.168-1.365-1.493c-0.582-0.324-1.258-0.487-2.033-0.487
		c-0.914,0-1.756,0.381-2.531,1.145C164.553,91.431,164.043,92.502,163.791,93.881z"/>
	<path fill="#FFFFFF" d="M99.687,103.578H97.35V89.983h-4.579v-2.004h6.916V103.578z M98.526,82.111
		c0.438,0,0.814,0.156,1.125,0.463c0.31,0.308,0.464,0.677,0.464,1.104c0,0.451-0.153,0.826-0.457,1.128
		c-0.306,0.302-0.683,0.454-1.133,0.454c-0.41,0-0.772-0.159-1.088-0.475c-0.312-0.317-0.472-0.688-0.472-1.107
		c0-0.418,0.16-0.783,0.472-1.098C97.754,82.269,98.116,82.111,98.526,82.111z"/>
</g>
<g>
	<path fill="#FFFFFF" d="M74.573,117.277c0.456,0.438,0.708,0.938,0.759,1.496h-0.871c-0.096-0.42-0.29-0.754-0.577-0.998
		c-0.288-0.244-0.693-0.367-1.214-0.367c-0.634,0-1.146,0.229-1.537,0.682c-0.391,0.457-0.583,1.143-0.583,2.084
		c0,0.76,0.175,1.383,0.527,1.867c0.353,0.473,0.878,0.715,1.575,0.715c0.644,0,1.134-0.258,1.468-0.758
		c0.18-0.268,0.312-0.617,0.399-1.051h0.872c-0.078,0.697-0.332,1.283-0.76,1.744c-0.518,0.561-1.21,0.846-2.088,0.846
		c-0.754,0-1.387-0.23-1.901-0.695c-0.672-0.602-1.012-1.553-1.012-2.828c0-0.969,0.255-1.758,0.762-2.381
		c0.549-0.672,1.304-1.008,2.268-1.008C73.482,116.625,74.12,116.844,74.573,117.277z"/>
	<path fill="#FFFFFF" d="M77.231,116.805h2.983c0.491,0,0.895,0.074,1.212,0.213c0.605,0.281,0.908,0.799,0.908,1.555
		c0,0.387-0.08,0.709-0.245,0.961c-0.164,0.25-0.392,0.451-0.688,0.605c0.259,0.102,0.451,0.24,0.583,0.41
		c0.133,0.17,0.205,0.441,0.221,0.824l0.035,0.889c0.009,0.252,0.029,0.441,0.062,0.561c0.052,0.209,0.147,0.344,0.283,0.402v0.146
		h-1.105c-0.025-0.059-0.048-0.133-0.063-0.221c-0.015-0.094-0.028-0.268-0.037-0.518l-0.06-1.102
		c-0.019-0.432-0.173-0.713-0.463-0.861c-0.162-0.082-0.422-0.123-0.771-0.123h-1.959v2.824h-0.895V116.805z M80.109,119.807
		c0.402,0,0.721-0.084,0.956-0.248c0.234-0.17,0.351-0.469,0.351-0.895c0-0.469-0.163-0.783-0.491-0.955
		c-0.176-0.088-0.411-0.133-0.704-0.133h-2.096v2.23H80.109z"/>
	<path fill="#FFFFFF" d="M84.391,116.805h4.78v0.809H85.26v1.988h3.615v0.777H85.26v2.225h3.971v0.768h-4.84V116.805z"/>
	<path fill="#FFFFFF" d="M92.357,116.805h0.991l2.379,6.566h-0.959l-0.685-1.973h-2.575l-0.71,1.973h-0.913L92.357,116.805z
		 M93.831,120.68l-1.011-2.904l-1.047,2.904H93.831z"/>
	<path fill="#FFFFFF" d="M100.888,116.805v0.771h-2.219v5.795h-0.906v-5.795h-2.22v-0.771H100.888z"/>
	<path fill="#FFFFFF" d="M101.985,116.805h4.782v0.809h-3.91v1.988h3.612v0.777h-3.612v2.225h3.97v0.768h-4.842V116.805z"/>
	<path fill="#FFFFFF" d="M111.401,116.805l1.246,5.354l1.492-5.354h0.945l1.499,5.355l1.243-5.355h0.971l-1.729,6.566h-0.934
		l-1.521-5.445l-1.523,5.445h-0.932l-1.715-6.566H111.401z"/>
	<path fill="#FFFFFF" d="M125.056,117.742c0.436,0.582,0.656,1.32,0.656,2.23c0,0.977-0.25,1.787-0.752,2.451
		c-0.58,0.756-1.41,1.139-2.5,1.139c-1.006,0-1.807-0.338-2.381-0.998c-0.516-0.65-0.775-1.465-0.775-2.443
		c0-0.895,0.223-1.648,0.664-2.279c0.564-0.814,1.404-1.217,2.512-1.217C123.644,116.625,124.497,116.992,125.056,117.742z
		 M124.269,121.928c0.348-0.564,0.521-1.207,0.521-1.939c0-0.777-0.203-1.395-0.6-1.869c-0.404-0.473-0.957-0.711-1.66-0.711
		c-0.676,0-1.234,0.236-1.668,0.707c-0.422,0.465-0.637,1.152-0.637,2.064c0,0.723,0.186,1.346,0.549,1.85
		c0.367,0.498,0.969,0.752,1.791,0.752C123.353,122.781,123.919,122.492,124.269,121.928z"/>
	<path fill="#FFFFFF" d="M127.087,116.805h2.986c0.488,0,0.891,0.074,1.213,0.213c0.605,0.281,0.906,0.799,0.906,1.555
		c0,0.387-0.08,0.709-0.242,0.961c-0.168,0.25-0.396,0.451-0.691,0.605c0.258,0.102,0.455,0.24,0.586,0.41
		c0.133,0.17,0.201,0.441,0.221,0.824l0.035,0.889c0.008,0.252,0.031,0.441,0.059,0.561c0.049,0.209,0.145,0.344,0.279,0.402v0.146
		h-1.1c-0.027-0.059-0.047-0.133-0.064-0.221c-0.018-0.094-0.029-0.268-0.037-0.518l-0.059-1.102
		c-0.02-0.432-0.176-0.713-0.465-0.861c-0.164-0.082-0.426-0.123-0.768-0.123h-1.961v2.824h-0.898V116.805z M129.972,119.807
		c0.396,0,0.717-0.084,0.949-0.248c0.236-0.17,0.354-0.469,0.354-0.895c0-0.469-0.162-0.783-0.492-0.955
		c-0.18-0.088-0.412-0.133-0.703-0.133h-2.094v2.23H129.972z"/>
	<path fill="#FFFFFF" d="M134.173,116.805h0.896v5.799h3.293v0.768h-4.189V116.805z"/>
	<path fill="#FFFFFF" d="M139.124,116.805h2.631c0.885,0,1.576,0.316,2.068,0.959c0.436,0.578,0.656,1.314,0.656,2.223
		c0,0.699-0.133,1.328-0.389,1.896c-0.453,0.984-1.24,1.488-2.348,1.488h-2.619V116.805z M141.579,122.604
		c0.293,0,0.529-0.033,0.719-0.102c0.338-0.109,0.613-0.336,0.828-0.662c0.172-0.271,0.297-0.613,0.373-1.014
		c0.041-0.252,0.064-0.479,0.064-0.689c0-0.814-0.156-1.438-0.475-1.885c-0.312-0.447-0.82-0.676-1.52-0.676h-1.541v5.027H141.579z"
		/>
	<path fill="#FFFFFF" d="M146.089,121.242c0.02,0.379,0.109,0.68,0.256,0.916c0.289,0.441,0.793,0.652,1.506,0.652
		c0.322,0,0.619-0.041,0.883-0.141c0.516-0.188,0.77-0.523,0.77-0.996c0-0.361-0.105-0.623-0.324-0.777
		c-0.223-0.139-0.568-0.266-1.039-0.379l-0.859-0.197c-0.566-0.131-0.971-0.275-1.201-0.434c-0.396-0.277-0.604-0.689-0.604-1.23
		c0-0.596,0.203-1.084,0.594-1.465c0.398-0.375,0.963-0.566,1.695-0.566c0.67,0,1.242,0.17,1.715,0.496
		c0.463,0.336,0.701,0.869,0.701,1.604h-0.832c-0.043-0.354-0.133-0.623-0.275-0.812c-0.262-0.344-0.709-0.516-1.33-0.516
		c-0.508,0-0.875,0.111-1.094,0.332c-0.217,0.221-0.338,0.479-0.338,0.773c0,0.322,0.137,0.551,0.396,0.701
		c0.17,0.096,0.559,0.217,1.16,0.359l0.895,0.213c0.436,0.1,0.77,0.238,1,0.416c0.404,0.311,0.609,0.752,0.609,1.34
		c0,0.727-0.258,1.252-0.77,1.559c-0.52,0.314-1.121,0.473-1.809,0.473c-0.795,0-1.42-0.209-1.877-0.629
		c-0.443-0.412-0.67-0.979-0.66-1.691H146.089z"/>
</g>
</svg>
