<?xml version="1.0" encoding="utf-8"?>
<!-- Generator: Adobe Illustrator 25.1.0, SVG Export Plug-In . SVG Version: 6.00 Build 0)  -->
<svg version="1.1" id="Layer_1" xmlns="http://www.w3.org/2000/svg" xmlns:xlink="http://www.w3.org/1999/xlink" x="0px" y="0px"
	 viewBox="0 0 51.2 51.3" style="enable-background:new 0 0 51.2 51.3;" xml:space="preserve">
<style type="text/css">
	.st0{fill:#4EB7D9;}
	.st1{fill:#FFE538;}
	.st2{fill:#FA5A5A;}
</style>
<g>
	<path class="st0" d="M25.6,12.4C11.5,12.4,0,23.9,0,38c0,0.5,0.4,0.9,0.9,0.9s0.9-0.4,0.9-0.9c0-13.2,10.7-23.9,23.9-23.9
		c13.2,0,23.9,10.7,23.9,23.9c0,0.5,0.4,0.9,0.9,0.9c0.5,0,0.9-0.4,0.9-0.9C51.2,23.9,39.7,12.4,25.6,12.4z"/>
	<path class="st1" d="M25.6,17.6C14.4,17.6,5.2,26.8,5.2,38c0,0.5,0.4,0.9,0.9,0.9s0.9-0.4,0.9-0.9c0-10.3,8.4-18.7,18.7-18.7
		c10.3,0,18.7,8.4,18.7,18.7c0,0.5,0.4,0.9,0.9,0.9c0.5,0,0.9-0.4,0.9-0.9C46,26.8,36.9,17.6,25.6,17.6z"/>
	<path class="st2" d="M25.6,22.8c-8.4,0-15.2,6.8-15.2,15.2c0,0.5,0.4,0.9,0.9,0.9c0.5,0,0.9-0.4,0.9-0.9c0-7.4,6-13.5,13.5-13.5
		c7.4,0,13.5,6,13.5,13.5c0,0.5,0.4,0.9,0.9,0.9s0.9-0.4,0.9-0.9C40.8,29.6,34,22.8,25.6,22.8z"/>
	<path class="st1" d="M25.6,28c-5.5,0-10,4.5-10,10c0,0.5,0.4,0.9,0.9,0.9s0.9-0.4,0.9-0.9c0-4.6,3.7-8.3,8.3-8.3
		c4.6,0,8.3,3.7,8.3,8.3c0,0.5,0.4,0.9,0.9,0.9c0.5,0,0.9-0.4,0.9-0.9C35.6,32.5,31.1,28,25.6,28z"/>
	<path class="st0" d="M25.6,33.2c-2.6,0-4.8,2.1-4.8,4.8c0,0.5,0.4,0.9,0.9,0.9s0.9-0.4,0.9-0.9c0-1.7,1.4-3.1,3.1-3.1
		c1.7,0,3.1,1.4,3.1,3.1c0,0.5,0.4,0.9,0.9,0.9s0.9-0.4,0.9-0.9C30.4,35.4,28.3,33.2,25.6,33.2z"/>
</g>
</svg>
