<svg xmlns="http://www.w3.org/2000/svg" viewBox="0 0 171 155"><defs><style>.cls-1{fill:#363f44;}.cls-2{fill:#ddd;}.cls-3{fill:#ffdd67;}.cls-4{fill:#f86c5c;}.cls-5{fill:#83cda6;}.cls-6{fill:#6363ac;}.cls-7{fill:#fff;}</style></defs><title>logo</title><g id="Layer_2" data-name="Layer 2"><g id="Layer_1-2" data-name="Layer 1"><path class="cls-1" d="M159,12.76V53H88.36A19.14,19.14,0,0,0,69,72.36V143H12.76A12.76,12.76,0,0,1,0,130.24V12.76A12.76,12.76,0,0,1,12.76,0H146.24A12.76,12.76,0,0,1,159,12.76Z"/><path class="cls-2" d="M171,62v78.35A14.65,14.65,0,0,1,156.35,155H78V76.65A14.65,14.65,0,0,1,92.65,62Z"/><path class="cls-3" d="M171,62V86.11H78V76.65A14.65,14.65,0,0,1,92.65,62Z"/><rect class="cls-4" x="78" y="86.11" width="93" height="22.96"/><rect class="cls-5" x="78" y="109.07" width="93" height="22.96"/><path class="cls-6" d="M171,132v8.31A14.65,14.65,0,0,1,156.35,155H78V132Z"/><circle class="cls-7" cx="34" cy="31" r="13"/></g></g></svg>